<svg id="Layer_1" data-name="Layer 1" xmlns="http://www.w3.org/2000/svg" viewBox="0 0 183.9 184.31">
  <defs>
    <style>
      .cls-1 {
        fill: #5d2d80;
      }
    </style>
  </defs>
  <title>logoSmall</title>
  <path class="cls-1" d="M191.49,97.92c0,50.8-41.4,92.34-91.88,92.18-50.76-.16-92.1-41.54-92-92.13C7.67,47.19,49,5.75,99.56,5.79A92.15,92.15,0,0,1,191.49,97.92Zm-34.49,45c16.2-14.44,21.13-48,11.21-72.64-10-24.94-37.41-45.83-58.87-45-.18.37-.52.74-.52,1.11-.07,21.7-.2,43.39,0,65.09,0,1.95,1.53,4.25,3,5.76,8.13,8.39,16.48,16.57,24.72,24.85C143.37,129.07,150.2,136,157,142.92ZM41.89,143c15.69-15.76,31.19-31.18,46.45-46.85,1.47-1.51,2-4.49,2-6.79.15-19.6.1-39.19.07-58.79,0-1.79-.24-3.58-.36-5.33C67.69,25.17,41.56,45,31.29,69.41S25.38,126.24,41.89,143Zm12.87,13.55a67.67,67.67,0,0,0,35.12,14.52V122ZM109,122V171a66.15,66.15,0,0,0,35.32-14.5Z" transform="translate(-7.59 -5.79)"/>
</svg>
