<svg id="Layer_1" data-name="Layer 1" xmlns="http://www.w3.org/2000/svg" viewBox="0 0 1131.75 207.74">
  <defs>
    <style>
      .cls-1 {
        fill: #5d2d80;
      }
    </style>
  </defs>
  <title>logo</title>
  <g id="A7bRo8">
    <g>
      <path class="cls-1" d="M193,116.49c0,50.8-41.4,92.34-91.88,92.18-50.76-.16-92.1-41.54-92-92.13.08-50.78,41.42-92.22,92-92.18A92.15,92.15,0,0,1,193,116.49Zm-34.49,45c16.2-14.44,21.13-48,11.21-72.64-10-24.94-37.41-45.83-58.87-45-.18.37-.52.74-.52,1.11-.07,21.7-.2,43.39,0,65.09,0,1.95,1.53,4.25,3,5.76,8.13,8.39,16.48,16.57,24.72,24.85C144.88,147.65,151.7,154.61,158.51,161.5Zm-115.1.06c15.69-15.76,31.19-31.18,46.45-46.85,1.47-1.51,2-4.49,2-6.79.15-19.6.1-39.19.07-58.79,0-1.79-.24-3.58-.36-5.33C69.2,43.74,43.06,63.58,32.8,88S26.88,144.82,43.4,161.57Zm12.87,13.55a67.67,67.67,0,0,0,35.12,14.52v-49Zm54.22-34.57v49.07a66.15,66.15,0,0,0,35.32-14.5Z" transform="translate(-9.1 -18)"/>
      <path class="cls-1" d="M641.29,138.52c-.18-.12-1.47-1.12-2.83-2-20.6-13-22.45-39-3.48-54.29,15.55-12.55,33.51-13.57,51.47-7.12a65.82,65.82,0,0,0,24.89,4c3.34-.1,6.68.07,10,0s5.65.23,5.69,4.54-2.44,4.82-5.6,4.86c-5.18.06-10.37,0-15.74,0,1.8,5.36,4.17,9.91,4.79,14.69,2.63,20.2-10.72,36.75-32.1,39.24-8.37,1-17,.13-25.46-.37-4.73-.28-11.38,4.37-12.42,9.88-1.2,6.36,3.82,7.67,8,8,12.67,1,25.41,1.15,38.1,2,7.25.47,14.68.79,21.65,2.64,17.28,4.58,23.6,21.59,12.72,35.72a57.79,57.79,0,0,1-19.95,16.52c-24.81,11.87-50.31,11.8-75.6.73a34.58,34.58,0,0,1-7.41-4.62c-5.77-4.56-6.9-9.91-2.52-15.84,4.19-5.67,9.25-10.71,14-15.93,1.53-1.68,3.4-3,5.72-5.09-2-1.51-3.43-2.58-4.86-3.59-7.56-5.3-8.75-10.49-3.19-17.92C631.47,148.88,636.53,143.88,641.29,138.52ZM671,213.4c10.24-1.52,18.63-1.61,26.14-4.22a45.18,45.18,0,0,0,17.33-11.4c6.27-6.66,3.48-14.44-5.36-16.58-6-1.46-12.34-1.84-18.56-2.22-12.9-.79-25.93-.45-38.7-2.16-8.48-1.14-13.28,1.73-17.49,8.31-6.66,10.42-5.3,17.49,6.38,21.5C651,210.16,662.06,211.48,671,213.4Zm19.28-102c-.24-9.94-2.35-19.16-8.83-26.89-10-11.9-29.64-9.73-35.36,4.43-5.84,14.46-4.12,28.76,5.24,41.48,5.36,7.29,13.38,9.12,21.89,7.41,8.26-1.67,13.6-7,15.46-15.35C689.47,118.8,689.74,115.05,690.26,111.36Z" transform="translate(-9.1 -18)"/>
      <path class="cls-1" d="M493.63,162.11c-5.75,3.72-10.69,6.77-15.48,10-7.41,5.05-15.58,6.71-24.38,5.82-10.58-1.06-18.07-6.47-21.41-16.54s-2.08-19.85,6.44-26.82a97.41,97.41,0,0,1,20.64-12.72c9.62-4.45,19.73-7.88,29.77-11.32,3.83-1.31,5.53-3.18,5-7.16-.45-3.3-.49-6.67-1.16-9.91-3-14.46-21.78-20.67-33.17-11.16-4.35,3.63-4.07,8.29-4.09,13.13,0,7.44-2.69,11.1-8.37,12-8.68,1.32-14.43-6-11.42-15,3.35-10,11.42-15.23,20.92-18.1A68.24,68.24,0,0,1,494,73.7c14,3.55,19.64,10.62,19.83,24.91.23,17.54-.07,35.09.42,52.61.12,4.22,1.2,10,4,12.19,4.39,3.39,8-2.12,11.73-4.54.81-.53,1.55-1.16,3.45-2.6-.31,2.75.06,4.66-.73,5.68-6,7.7-12.8,14.51-23.1,15.75-9,1.08-13.21-2.2-15.19-11C494.18,165.53,494,164.31,493.63,162.11Zm.53-46.57c-13.4,4.59-25.76,8.2-35.85,16.73a21.28,21.28,0,0,0-4.38,5.26c-4,6.68-4,13.58.25,20.07,4.11,6.3,10.44,9.94,17.66,7.79s13.87-6.3,20.64-9.83c1-.5,1.6-2.45,1.62-3.74C494.21,140.17,494.16,128.52,494.16,115.54Z" transform="translate(-9.1 -18)"/>
      <path class="cls-1" d="M328.59,137.19a32.79,32.79,0,0,1-.51,5.08c-6,23.31-26.23,38-50.74,36.74-20.86-1-39.19-18.85-42.77-41.55-5-31.46,10-56.67,38.38-63.88,15.78-4,31.12-3,44.47,7.69A29.31,29.31,0,0,1,324,88.71c3.92,6.43,2.35,12.94-3.29,15.49-6.95,3.15-15.74.37-18.32-5.84a10.86,10.86,0,0,1-1-3.59c-.61-15.54-12.62-18.19-25.32-15.37-12.43,2.76-21.22,14.93-22.71,30.56-1.22,12.82,1.35,24.9,8.42,35.83,14.08,21.8,44.15,22.05,58.66.5,2.08-3.09,4.07-6.23,6.17-9.3C326.7,136.83,327.36,137.05,328.59,137.19Z" transform="translate(-9.1 -18)"/>
      <path class="cls-1" d="M839.85,30.18c10.53-3.85,21-7.78,31.61-11.53,5.36-1.9,6.88.49,6.86,5.8-.15,42.56-.09,85.12-.07,127.68,0,2.92.06,5.85.33,8.75.67,7,4,10.21,11.12,11.19,2.29.31,4.53,1,6.79,1.58l-.36,2.1h-54.3l-.72-1c1.34-.84,2.59-2.16,4-2.43,9.62-1.84,12.43-4.68,12.55-14.54.21-18.57.12-37.14.11-55.7s0-37.14-.2-55.7c0-3.45-.22-7.79-2.21-10.08s-6.28-2.65-9.66-3.46c-1.87-.45-3.94-.08-5.93-.08Z" transform="translate(-9.1 -18)"/>
      <path class="cls-1" d="M745.33,179.27c0-12.94,0-23.74.08-34.54,0-.92,1.2-1.83,1.84-2.75,1,.85,2.36,1.51,2.87,2.59,1.6,3.37,2.52,7.1,4.35,10.33,7.12,12.56,18,18.76,32.5,18.15,7.72-.33,14.68-5.37,16.51-11.43,2.07-6.82-.69-14.27-7.89-18.81-6.32-4-13.13-7.2-19.77-10.66-5.17-2.7-10.56-5-15.6-7.91-12.25-7.06-16.93-15.82-15.11-27.55a28.14,28.14,0,0,1,23.63-23.58c8-1.12,16.48,0,24.65.84,6,.65,12,4.24,17.15-2,.33-.4,1.56-.05,2.59-.05.12,1.65.32,3.07.32,4.49,0,9.8,0,19.59,0,31.16-2.26-2-3.82-2.82-4.46-4.09-1.57-3.16-2.49-6.64-4.06-9.79-6.39-12.85-19.76-18.79-33.53-14.84-5.67,1.63-10.52,4.79-11.67,11a13.72,13.72,0,0,0,6.4,14.65c6.88,4.23,14.35,7.49,21.57,11.17,7.41,3.77,15.38,6.74,22.11,11.48,17.71,12.47,16.3,34.6-2.28,45.85-11,6.67-22.82,6.84-35.09,5.47C763.9,177.45,755.43,171.69,745.33,179.27Z" transform="translate(-9.1 -18)"/>
      <path class="cls-1" d="M985.83,179.31v-37l1.79-.89c1.1,1.86,2.54,3.6,3.24,5.6,5.91,16.84,18.92,26.66,34.88,26.16,8.79-.28,15.79-5.05,17.85-12.16,1.94-6.7-.86-13.69-8.51-18.49-6.68-4.19-13.92-7.5-20.94-11.15-4.8-2.5-9.78-4.69-14.44-7.43-12.35-7.26-16.29-15.12-14.3-27.76C987.17,85,996.17,75.87,1008,72.91c9.67-2.42,19-.9,28.39,1.55,4.61,1.21,9.33,3.13,13.16-1.93.18-.24,3.92,1.23,3.94,2,.28,9.59.24,19.2.1,28.8,0,.94-1.16,1.86-1.79,2.79-1-.86-2.28-1.55-2.8-2.62-2.09-4.3-3.5-9-5.93-13-6.68-11.2-21.95-15.89-34-10.81C998.52,84,996,94.83,1004.34,102.67c4,3.76,9.2,6.39,14.19,8.88,9.12,4.56,18.76,8.16,27.68,13.06,8.45,4.64,14.91,11.31,15.68,21.89.91,12.57-5.06,21-15.47,27.09s-21.79,6-33.4,4.93C1004.23,177.73,995.61,171.19,985.83,179.31Z" transform="translate(-9.1 -18)"/>
      <path class="cls-1" d="M378.5,72.11V93.87c4-4.94,6.95-8.93,10.31-12.49C394.24,75.61,400.54,71,409,71.81A21.23,21.23,0,0,1,418.24,75,10.36,10.36,0,0,1,422,88.76a11,11,0,0,1-13.7,4.31,45.25,45.25,0,0,1-8.06-4.76C396.07,85.46,392.5,86,389,89.48c-6.61,6.69-11.47,13.72-10.83,24.09.81,13.11.11,26.31.23,39.47s3.43,16.82,16.27,19.25c1.44.27,2.73,1.31,4.09,2l-.5,1.56H340.6l-.76-1.28c1.53-.78,3-2,4.61-2.27,11.11-1.76,13.5-4.35,13.51-15.46,0-18.59.17-37.19-.06-55.78-.18-14.25-3.18-16.48-18-13.66.3-1.47.24-3.44.82-3.65,11.54-4.14,23.15-8.09,34.76-12C376.19,71.52,377.08,71.92,378.5,72.11Z" transform="translate(-9.1 -18)"/>
      <path class="cls-1" d="M1073.75,79.5c4.84-3.34,10.05-6.26,14.41-10.14a91.69,91.69,0,0,0,12.5-13.89c3.38-4.56,5.85-9.79,8.72-14.73l2.42.89q0,10.1,0,20.21c0,12.65,0,12.65,13,12.65h12.83l.52,6a10.44,10.44,0,0,1-2.57.81c-6.05.09-12.11.21-18.15.09-3.8-.08-5.71,1-5.68,5.31.15,21.5,0,43,.15,64.49,0,5.55,1.26,11,7.42,13.24,6.34,2.35,11.3-.29,15.79-4.59,1.42-1.37,3.11-2.45,5.76-4.51-4,18.29-25.84,27.68-40,18.8-7.24-4.54-9-11.62-9-19.47q0-31.93,0-63.86c0-9.36,0-9.36-9.62-9.38h-7.9Z" transform="translate(-9.1 -18)"/>
      <path class="cls-1" d="M948.73,71.71c0,14,0,27.31,0,40.62,0,15-.09,30,.05,45,.09,10.26,2.65,13,12.72,14.95,1.4.27,2.65,1.37,4,2.08l-.55,1.49h-53l-.6-1.63c1.66-.69,3.27-1.74,5-2,8.27-1.25,11.54-4.1,11.64-12.59q.38-31.57-.16-63.15c-.17-9.12-3.74-11.17-13.85-9.69-1.13.17-2.39-.55-3.6-.85.49-1,.76-2.51,1.5-2.78q16.09-5.9,32.31-11.44C945.25,71.38,946.6,71.71,948.73,71.71Z" transform="translate(-9.1 -18)"/>
      <path class="cls-1" d="M598.12,176H544.78l-.67-1.55c1.6-.72,3.15-1.83,4.82-2.09,8.67-1.31,11.75-3.36,11.92-12.26.42-21.87.13-43.77-.37-65.65-.15-6.82-4.46-9.06-12-8-1.67.23-3.48-.51-5.23-.81,1.31-1.07,2.45-2.56,3.95-3.14q13.12-5,26.39-9.67c2.27-.79,4.77-.91,8-1.49,0,3,0,5.26,0,7.5,0,24.84,0,49.68,0,74.53a61.74,61.74,0,0,0,1,9.92c.91,5.44,4.34,8.23,9.8,8.87a45.73,45.73,0,0,1,6.35,1.64Z" transform="translate(-9.1 -18)"/>
      <path class="cls-1" d="M938.87,40c-7.29.09-12.42-4.41-12.42-10.91,0-6.3,4.88-10.83,11.8-11s12.59,4.71,12.61,11C950.88,35.17,945.67,39.89,938.87,40Z" transform="translate(-9.1 -18)"/>
      <path class="cls-1" d="M571.38,40c-7.2-.1-12.22-4.88-12-11.43.2-6,5.56-10.54,12.41-10.43S584,23,583.94,29C583.92,35.32,578.5,40.07,571.38,40Z" transform="translate(-9.1 -18)"/>
    </g>
  </g>
</svg>
